/* XPM */
static char *fda746f3362f4f7dd6f662597ff80a54YcHImAogJt5Tbhye[] = {
/* columns rows colors chars-per-pixel */
"60 60 6 1 ",
"  c black",
". c #306850",
"X c #64FF00",
"o c #65FF00",
"O c #86C06C",
"+ c #E0F8D0",
/* pixels */
"ooooooooooooooooooooooooooooooooXXoooooooooooooooooooooooooo",
"ooooooooooooooooooooooooooooooooooXooooooooooooooooooooooooo",
"oooooooooooooooooooooooooooXXXXXXoooXXXXXXXXXXXoXXXXXXXXXooX",
"oooXXXXXXXXXXXXXXXXXXXXXXXoXXXXXXXXoXXXXXXXXXoooooooooXXXXXo",
"oXooXXooooXXXXooXXooXXooXXXooooooooooooooooooooooooooooooooo",
"oooooooooooooooooooooooooooooooooooooooooooooooooooooooooooo",
"ooooooo               oooooooooooo               ooooooooooo",
"ooooooo               oooooooooooo               ooooooooooo",
"ooooooo               oooooooooooo               ooooooooooo",
"oooo   +++++++++++++++    oooo    +++++++++++++++   oooooooo",
"oooo   +++++++++++++++    oooo    +++++++++++++++   oooooooo",
"oooo   +++++++++++++++    oooo    +++++++++++++++   oooooooo",
"oooo   +++++++++++++++    oooo    +++++++++++++++   oooooooo",
"    +++OOOOOOOOOOOOOOO++++    ++++OOOOOOOOOOOOOOO+++    oooo",
"    +++OOOOOOOOOOOOOOO++++    ++++OOOOOOOOOOOOOOO+++    oooo",
"    +++OOOOOOOOOOOOOOO++++    ++++OOOOOOOOOOOOOOO+++    oooo",
"    +++OOOOOOOOOOOOOOO++++    ++++OOOOOOOOOOOOOOO+++    oooo",
"    OOOOOOOOOOOOOOOOOOOOOOOOOOOOOOOOOOOOOOOOOOOOOOOO    oooo",
"    OOOOOOOOOOOOOOOOOOOOOOOOOOOOOOOOOOOOOOOOOOOOOOOO    oooo",
"    OOOOOOOOOOOOOOOOOOOOOOOOOOOOOOOOOOOOOOOOOOOOOOOO    oooo",
"    OOOOOOOOOOOOOOOOOOOOOOOOOOOOOOOOOOOOOOOOOOOOOOOO    oooo",
"    OOOOOOOOOOOOOOOOOOOOOOOOOOOOOOOOOOOOOOOOOOOOOOOO    oooo",
"    OOOOOOOOOOOOOOOOOOOOOOOOOOOOOOOOOOOOOOOOOOOOOOOO    oooo",
"    OOOOOOOOOOOOOOOOOOOOOOOOOOOOOOOOOOOOOOOOOOOOOOOO    oooo",
"    OOOOOOOOOOOOOOOOOOOOOOOOOOOOOOOOOOOOOOOOOOOOOOOO    oooo",
"    OOOOOOOOOOOOOOOOOOOOOOOOOOOOOOOOOOOOOOOOOOOOOOOO    oooo",
"    OOOOOOOOOOOOOOOOOOOOOOOOOOOOOOOOOOOOOOOOOOOOOOOO    oooo",
"    OOOOOOOOOOOOOOOOOOOOOOOOOOOOOOOOOOOOOOOOOOOOOOOO    oooo",
"oooo   OOOOOOOOOOOOOOOOOOOOOOOOOOOOOOOOOOOOOOOOOO   oooooooo",
"oooo   OOOOOOOOOOOOOOOOOOOOOOOOOOOOOOOOOOOOOOOOOO   oooooooo",
"oooo   OOOOOOOOOOOOOOOOOOOOOOOOOOOOOOOOOOOOOOOOOO   oooooooo",
"oooo   OOOOOOOOOOOOOOOOOOOOOOOOOOOOOOOOOOOOOOOOOO   oooooooo",
"oooo   ....OOOOOOOOOOOOOOOOOOOOOOOOOOOOOOOOOO....   oooooooo",
"oooo   ....OOOOOOOOOOOOOOOOOOOOOOOOOOOOOOOOOO....   oooooooo",
"oooo   ....OOOOOOOOOOOOOOOOOOOOOOOOOOOOOOOOOO....   oooooooo",
"oooo   ....OOOOOOOOOOOOOOOOOOOOOOOOOOOOOOOOOO....   oooooooo",
"ooooooo    ....OOOOOOOOOOOOOOOOOOOOOOOOOO....    ooooooooooo",
"ooooooo    ....OOOOOOOOOOOOOOOOOOOOOOOOOO....    ooooooooooo",
"ooooooo    ....OOOOOOOOOOOOOOOOOOOOOOOOOO....    ooooooooooo",
"ooooooooooo    ....OOOOOOOOOOOOOOOOOO....    ooooooooooooooo",
"ooooooooooo    ....OOOOOOOOOOOOOOOOOO....    ooooooooooooooo",
"ooooooooooo    ....OOOOOOOOOOOOOOOOOO....    ooooooooooooooo",
"ooooooooooo    ....OOOOOOOOOOOOOOOOOO....    ooooooooooooooo",
"ooooooooooooooo    ...OOOOOOOOOOOO...    ooooooooooooooooooo",
"ooooooooooooooo    ...OOOOOOOOOOOO...    ooooooooooooooooooo",
"ooooooooooooooo    ...OOOOOOOOOOOO...    ooooooooooooooooooo",
"ooooooooooooooo    ...OOOOOOOOOOOO...    ooooooooooooooooooo",
"ooooooooooooooooooo   ............   ooooooooooooooooooooooo",
"ooooooooooooooooooo   ............   ooooooooooooooooooooooo",
"ooooooooooooooooooo   ............   ooooooooooooooooooooooo",
"ooooooooooooooooooo   ............   ooooooooooooooooooooooo",
"oooooooooooooooooooooo            oooooooooooooooooooooooooo",
"oooooooooooooooooooooo            oooooooooooooooooooooooooo",
"oooooooooooooooooooooo            oooooooooooooooooooooooooo",
"oooooooooooooooooooooooooooooooooooooooooooooooooooooooooooo",
"oooooooooooooooooooooooooooooooooooooooooooooooooooooooooooo",
"oooooooooooooooooooooooooooooooooooooooooooooooooooooooooooo",
"oooooooooooooooooooooooooooooooooooooooooooooooooooooooooooo",
"oooooooooooooooooooooooooooooooooooooooooooooooooooooooooooo",
"oooooooooooooooooooooooooooooooooooooooooooooooooooooooooooo"
};
