/* XPM */
static char *_218eda5bd4440ccb3843429540b4a4bhJ5ktfJqIXZPA4MU[] = {
/* columns rows colors chars-per-pixel */
"60 60 5 1 ",
"  c black",
". c #306850",
"X c #65FF00",
"o c #86C06C",
"O c #E0F8D0",
/* pixels */
"XXXXXXXXXXXXXXXXXXXXXXXXXXXXXXXXXXXXXXXXXXXXXXXXXXXXXXXXXXXX",
"XXXXXXXXXXXXXXXXXXXXXXXXXXXXXXXXXXXXXXXXXXXXXXXXXXXXXXXXXXXX",
"XXXXXXXXXXXXXXXXXXXXXXXXXXXXXXXXXXXXXXXXXXXXXXXXXXXXXXXXXXXX",
"XXXXXXXXXXXXXXXXXXXXXXXXXXXXXXXXXXXXXXXXXXXXXXXXXXXXXXXXXXXX",
"XXXXXXX               XXXXXXXXXXXX               XXXXXXXXXXX",
"XXXXXXX               XXXXXXXXXXXX               XXXXXXXXXXX",
"XXXXXXX               XXXXXXXXXXXX               XXXXXXXXXXX",
"XXXX   OOOOOOOOOOOOOOO    XXXX    OOOOOOOOOOOOOOO   XXXXXXXX",
"XXXX   OOOOOOOOOOOOOOO    XXXX    OOOOOOOOOOOOOOO   XXXXXXXX",
"XXXX   OOOOOOOOOOOOOOO    XXXX    OOOOOOOOOOOOOOO   XXXXXXXX",
"XXXX   OOOOOOOOOOOOOOO    XXXX    OOOOOOOOOOOOOOO   XXXXXXXX",
"    OOOoooooooooooooooOOOO    OOOOoooooooooooooooOOO    XXXX",
"    OOOoooooooooooooooOOOO    OOOOoooooooooooooooOOO    XXXX",
"    OOOoooooooooooooooOOOO    OOOOoooooooooooooooOOO    XXXX",
"    OOOoooooooooooooooOOOO    OOOOoooooooooooooooOOO    XXXX",
"    oooooooooooooooooooooooooooooooooooooooooooooooo    XXXX",
"    oooooooooooooooooooooooooooooooooooooooooooooooo    XXXX",
"    oooooooooooooooooooooooooooooooooooooooooooooooo    XXXX",
"    oooooooooooooooooooooooooooooooooooooooooooooooo    XXXX",
"    oooooooooooooooooooooooooooooooooooooooooooooooo    XXXX",
"    oooooooooooooooooooooooooooooooooooooooooooooooo    XXXX",
"    oooooooooooooooooooooooooooooooooooooooooooooooo    XXXX",
"    oooooooooooooooooooooooooooooooooooooooooooooooo    XXXX",
"    oooooooooooooooooooooooooooooooooooooooooooooooo    XXXX",
"    oooooooooooooooooooooooooooooooooooooooooooooooo    XXXX",
"    oooooooooooooooooooooooooooooooooooooooooooooooo    XXXX",
"XXXX   oooooooooooooooooooooooooooooooooooooooooo   XXXXXXXX",
"XXXX   oooooooooooooooooooooooooooooooooooooooooo   XXXXXXXX",
"XXXX   oooooooooooooooooooooooooooooooooooooooooo   XXXXXXXX",
"XXXX   oooooooooooooooooooooooooooooooooooooooooo   XXXXXXXX",
"XXXX   ....oooooooooooooooooooooooooooooooooo....   XXXXXXXX",
"XXXX   ....oooooooooooooooooooooooooooooooooo....   XXXXXXXX",
"XXXX   ....oooooooooooooooooooooooooooooooooo....   XXXXXXXX",
"XXXX   ....oooooooooooooooooooooooooooooooooo....   XXXXXXXX",
"XXXXXXX    ....oooooooooooooooooooooooooo....    XXXXXXXXXXX",
"XXXXXXX    ....oooooooooooooooooooooooooo....    XXXXXXXXXXX",
"XXXXXXX    ....oooooooooooooooooooooooooo....    XXXXXXXXXXX",
"XXXXXXXXXXX    ....oooooooooooooooooo....    XXXXXXXXXXXXXXX",
"XXXXXXXXXXX    ....oooooooooooooooooo....    XXXXXXXXXXXXXXX",
"XXXXXXXXXXX    ....oooooooooooooooooo....    XXXXXXXXXXXXXXX",
"XXXXXXXXXXX    ....oooooooooooooooooo....    XXXXXXXXXXXXXXX",
"XXXXXXXXXXXXXXX    ...oooooooooooo...    XXXXXXXXXXXXXXXXXXX",
"XXXXXXXXXXXXXXX    ...oooooooooooo...    XXXXXXXXXXXXXXXXXXX",
"XXXXXXXXXXXXXXX    ...oooooooooooo...    XXXXXXXXXXXXXXXXXXX",
"XXXXXXXXXXXXXXX    ...oooooooooooo...    XXXXXXXXXXXXXXXXXXX",
"XXXXXXXXXXXXXXXXXXX   ............   XXXXXXXXXXXXXXXXXXXXXXX",
"XXXXXXXXXXXXXXXXXXX   ............   XXXXXXXXXXXXXXXXXXXXXXX",
"XXXXXXXXXXXXXXXXXXX   ............   XXXXXXXXXXXXXXXXXXXXXXX",
"XXXXXXXXXXXXXXXXXXX   ............   XXXXXXXXXXXXXXXXXXXXXXX",
"XXXXXXXXXXXXXXXXXXXXXX            XXXXXXXXXXXXXXXXXXXXXXXXXX",
"XXXXXXXXXXXXXXXXXXXXXX            XXXXXXXXXXXXXXXXXXXXXXXXXX",
"XXXXXXXXXXXXXXXXXXXXXX            XXXXXXXXXXXXXXXXXXXXXXXXXX",
"XXXXXXXXXXXXXXXXXXXXXXXXXXXXXXXXXXXXXXXXXXXXXXXXXXXXXXXXXXXX",
"XXXXXXXXXXXXXXXXXXXXXXXXXXXXXXXXXXXXXXXXXXXXXXXXXXXXXXXXXXXX",
"XXXXXXXXXXXXXXXXXXXXXXXXXXXXXXXXXXXXXXXXXXXXXXXXXXXXXXXXXXXX",
"XXXXXXXXXXXXXXXXXXXXXXXXXXXXXXXXXXXXXXXXXXXXXXXXXXXXXXXXXXXX",
"XXXXXXXXXXXXXXXXXXXXXXXXXXXXXXXXXXXXXXXXXXXXXXXXXXXXXXXXXXXX",
"XXXXXXXXXXXXXXXXXXXXXXXXXXXXXXXXXXXXXXXXXXXXXXXXXXXXXXXXXXXX",
"XXXXXXXXXXXXXXXXXXXXXXXXXXXXXXXXXXXXXXXXXXXXXXXXXXXXXXXXXXXX",
"XXXXXXXXXXXXXXXXXXXXXXXXXXXXXXXXXXXXXXXXXXXXXXXXXXXXXXXXXXXX"
};
