/* XPM */
static char *result[] = {
/* columns rows colors chars-per-pixel */
"60 60 20 1 ",
"  c black",
". c #ED493B",
"X c #EC4B3A",
"o c #EC4A3B",
"O c #EB4D3B",
"+ c #EA4E3B",
"@ c #F34337",
"# c #F44136",
"$ c #F44236",
"% c #F54236",
"& c #F44336",
"* c #F54336",
"= c #F34436",
"- c #E7523D",
"; c #F25949",
": c #86C06C",
"> c #E9A88E",
", c #E6CBAA",
"< c #CAEBB7",
"1 c #E0F8CF",
/* pixels */
"::::::::::::::::::::::::::::::::::::::::::::::::::::::::::::",
"::::::::::::::::::::::::::::::::::::::::::::::::::::::::::::",
"::::::::::::::::::::::::::::::::::::::::::::::::::::::::::::",
"::::::::::::::::::::::::::::::::::::::::::::::::::::::::::::",
"                                                            ",
"                                                            ",
"                                                            ",
"                                                            ",
"                                                            ",
"                                                            ",
"                                                            ",
"    :::111111111111111111111111111111111111111111111::::    ",
"    :::111111111111111111111111111111111111111111111::::    ",
"    :::111111111111111111111111111111111111111111111::::    ",
"    :::111111111111111111111111111111111111111111111::::    ",
"    :::111111111111111111111111111111111111111111111::::    ",
"    :::111111111111111111111111111111111111111111111::::    ",
"    :::111111111111111111111111111111111111111111111::::    ",
"    :::111111111111111111111111111111111111111111111::::    ",
"    ::::::::::::::::::::::::::::::::::::::::::::::::::::    ",
"    ::::::::::::::::::::::::::::::::::::::::::::::::::::    ",
"    ::::::::::::::::::::::::::::::::::::::::::::::::::::    ",
"    1111111111111111111111111111111111111111111111111111    ",
"    1111111111111111111111111111111111111111111111111111    ",
"    1111111111111111111,>>>,1111111,,,,11111111111111111    ",
"    11111111111111111,,o&&&&&&111<&&&&&&,111111111111111    ",
"    1111111111111111,O+&&####&&1&&&&&&&&&&11111111111111    ",
"    111111111111111,.&####&&##&&&&&#&&##&&&1111111111111    ",
"    111111111111111O###&&&&&&&&&&&&&&&==&&&1111111111111    ",
"    111111111111111#&###&&&&&&&&##*#&&&&&&&1111111111111    ",
"    111111111111111&&&###&&&&&&#$$##&&&&&&&1111111111111    ",
"    111111111111111&$&&&&&&$X+&$&&##&&&&&&&1111111111111    ",
"    111111111111111;&$&&&&&&&&&&&&&&&&$%&&&1111111111111    ",
"    1111111111111111&&$&&#&&&&&&&&&&&&$%&&&1111111111111    ",
"    1111111111111111;&&#&&#&&&&&&&&&&%&&&&11111111111111    ",
"    11111111111111111-&&&&&##&&&&&&&&$&&&&11111111111111    ",
"    111111111111111111-&&&&&#&&##&&&%&&&&111111111111111    ",
"    1111111111111111111-&&&&&&&#&&&%$&&&&111111111111111    ",
"    1111111111111111111&&&&&&&&#&&%$&&&&1111111111111111    ",
"    11111111111111111111&&&&&&&&%%@&&&&11111111111111111    ",
"    111111111111111111111&&&&&&&&=&&&&111111111111111111    ",
"    1111111111111111111111&&&&&$&&&&&1111111111111111111    ",
"    11111111111111111111111&&&&&&&%&&1111111111111111111    ",
"    111111111111111111111111&&&&&&&&11111111111111111111    ",
"    1111111111111111111111111&&&&&1111111111111111111111    ",
"                                                            ",
"                                                            ",
"                                                            ",
"                                                            ",
"    ::::::::::::::::::::::::::::::::::::::::::::::::::::    ",
"    ::::::::::::::::::::::::::::::::::::::::::::::::::::    ",
"    ::::::::::::::::::::::::::::::::::::::::::::::::::::    ",
"    ::::::::::::::::::::::::::::::::::::::::::::::::::::    ",
"    ::::::::::::::::::::::::::::::::::::::::::::::::::::    ",
"    ::::::::::::::::::::::::::::::::::::::::::::::::::::    ",
"    ::::::::::::::::::::::::::::::::::::::::::::::::::::    ",
"    :::                                             ::::    ",
"    :::                                             ::::    ",
"    :::                                             ::::    ",
"    :::                                             ::::    "
};
