/* XPM */
static char *_c8fe15a55f94360be20129b188a81a3aEMietKSbIwt70sR[] = {
/* columns rows colors chars-per-pixel */
"60 60 2 1 ",
"  c #63FF00",
". c #65FF00",
/* pixels */
"... . .. ... ... .. .. ........ . ...  ... ........ . ......",
" .. ........... .... .. .   .  ........ .  ... .... ..  .. .",
".... ..  . .. ... ....... .. ..  ..  . . ..  ..  . . ... ...",
"...... .. .  ..   . .. ................................... .",
"........................................................... ",
"............................................................",
"..................... .................................... .",
"............................................................",
"..................................................... . ....",
".........  ..  ........ ............. . . .  . ..  .........",
"............................................... ............",
"......................... .................... ... . . . ...",
"................. .... ... .................................",
".................. .... .....  .............................",
"...... .......... .  ............  .........................",
"................................... ........................",
"........... .................... ...........................",
". .............  .......... .  .............................",
".. ......... ............ ..................................",
"............ .. ..... . ............. . ....................",
"................... ................... ....................",
"............ ...... . . . . .  ..  .. ...  .................",
"................................ ........................ . ",
".............................. ........................ .. .",
"........... ............... ......................... ... ..",
"................ . . . .. .. ................... . .........",
"............. ... . . . .. .. . ............... .......... .",
" .............  ........ ..  . ........... . ...............",
"......................................... ............... ..",
"................ ................... . .... .  .......... ..",
"............................ ..  . ..............  .........",
"...................  . . . ......................... . .... ",
"................... . . . . . . . ............. . . . ......",
".............................  .......... .  ...............",
" .. .................................. .....................",
". ................................... .  . .. .  . .. .  ...",
"...................................... .. . ................",
".......................... ................. .. .  .........",
"..................................................... . . ..",
".............................. ... ................. . .....",
".............................. .. ............ . ... .. ....",
"...................................  . ..  ........  .... ..",
"........................................ ........  ....... .",
"...............................................  .......... ",
"........................................................... ",
"........................................... . ... ....... ..",
". . .  ..  ............................................ ....",
" . . .. ....................................................",
"..................................................... ......",
"...................................................  ... ...",
"....................................... .  ............. ...",
"........................ . .. .  . .. ....... ...  .........",
".......... .. . . .  . . .  . .................. ...........",
".. . .. . .  . . .... . . ....................  ............",
".. ..  . ...................................................",
". . ........................................................",
"............................................................",
"............................................................",
"............................................................",
"............................................................"
};
