/* XPM */
static char *result[] = {
/* columns rows colors chars-per-pixel */
"60 60 4 1 ",
"  c #071821",
". c #65FF00",
"X c #86C06C",
"o c #E0F8CF",
/* pixels */
"............................................................",
"............................................................",
"............................................................",
"............................................................",
"       ............                      ...................",
"       ............                      ...................",
"       ............                      ...................",
"           ....    XXXXXXXXXXXXXXXXXXoooo    ....       ....",
"    XXX    ....    XXXXXXXXXXXXXXXXXXoooo    ....       ....",
"    XXX    ....    XXXXXXXXXXXXXXXXXXoooo    ....       ....",
"    XXX    ....    XXXXXXXXXXXXXXXXXXoooo    ....       ....",
"    XXXXXXX    XXXXXXXooooXXXXXXXXXXXXXXXXXXX    XXXXXXX    ",
"    XXXXXXX    XXXXXXXooooXXXXXXXXXXXXXXXXXXX    XXXXXXX    ",
"    XXXXXXX    XXXXXXXooooXXXXXXXXXXXXXXXXXXX    XXXXXXX    ",
"    XXXXXXX    XXXXXXXooooXXXXXXXXXXXXXXXXXXX    XXXXXXX    ",
"....   XXXXXXXXXXXXXXXXXXXXXXXXXXXoooXXXXXXXXXXXXXXX        ",
"....   XXXXXXXXXXXXXXXXXXXXXXXXXXXoooXXXXXXXXXXXXXXX        ",
"....   XXXXXXXXXXXXXXXXXXXXXXXXXXXoooXXXXXXXXXXXXXXX        ",
"....   XXXXXXXXXXXXXXXXXXXXXXXXXXXoooXXXXXXXXXXXXXXX        ",
"....   XXXXXXXXXXXXXXXXXXXXXXXXXXXXXXXXXXXXXXXXXXXXX    ....",
"....   XXXXXXXXXXXXXXXXXXXXXXXXXXXXXXXXXXXXXXXXXXXXX    ....",
"....   XXXXXXXXXXXXXXXXXXXXXXXXXXXXXXXXXXXXXXXXXXXXX    ....",
"....   XXXXXXXXoooooooXXXXXXXXXXXXXXXooooooooXXXXXXX    ....",
"....   XXXXXXXXoooooooXXXXXXXXXXXXXXXooooooooXXXXXXX    ....",
"....   XXXXXXXXoooooooXXXXXXXXXXXXXXXooooooooXXXXXXX    ....",
"....   XXXXXXXXoooooooXXXXXXXXXXXXXXXooooooooXXXXXXX    ....",
".......    XXXXo    oo    XXXXXXXX   ooo    oXXXX   ........",
".......    XXXXo    oo    XXXXXXXX   ooo    oXXXX   ........",
".......    XXXXo    oo    XXXXXXXX   ooo    oXXXX   ........",
".......    XXXXo    oo    XXXXXXXX   ooo    oXXXX   ........",
".......    XXXXXXXXXXX    XXXXXXXX   XXXXXXXXXXXX   ........",
".......    XXXXXXXXXXX    XXXXXXXX   XXXXXXXXXXXX   ........",
".......    XXXXXXXXXXX    XXXXXXXX   XXXXXXXXXXXX   ........",
".......    XXXXXXXXXXX    XXXXXXXX   XXXXXXXXXXXX   ........",
"...........    XXXXXXXXXXX        XXXXXXXXXXX    ...........",
"...........    XXXXXXXXXXX        XXXXXXXXXXX    ...........",
"...........    XXXXXXXXXXX        XXXXXXXXXXX    ...........",
".......    oooo    XXXXXXXXXXXXXXXXXXXXXX    oooo   ........",
".......    oooo    XXXXXXXXXXXXXXXXXXXXXX    oooo   ........",
".......    oooo    XXXXXXXXXXXXXXXXXXXXXX    oooo       ....",
".......    oooo    XXXXXXXXXXXXXXXXXXXXXX    oooo       ....",
"......   XXXXXXoooo                      ooooXXXXXXXX   ....",
"......   XXXXXXoooo                      ooooXXXXXXXX   ....",
"......   XXXXXXoooo                      ooooXXXXXXXX   ....",
"......   XXXXXXoooo                      ooooXXXXXXXX   ....",
"......   XXX   oooooooooooooooooooooooooooooo    XXXX   ....",
"......   XXX   oooooooooooooooooooooooooooooo    XXXX   ....",
"......   XXX   oooooooooooooooooooooooooooooo    XXXX   ....",
"......   XXX   oooooooooooooooooooooooooooooo    XXXX   ....",
"......        .    oooooooooooooooooooooo    ....       ....",
"......        .    oooooooooooooooooooooo    ....       ....",
"......        .    oooooooooooooooooooooo    ....       ....",
"...............    XXX               XXXX    ...............",
"...............    XXX               XXXX    ...............",
"...............    XXX               XXXX    ...............",
"...............    XXX               XXXX    ...............",
"...............           ........           ...............",
"...............           ........           ...............",
"...............           ........           ...............",
"...............           ........           ..............."
};
