/* XPM */
static char *e0993966370f4546de75a899cb832a17imktrHdm81eHNtL9[] = {
/* columns rows colors chars-per-pixel */
"60 60 4 1 ",
"  c #071821",
". c #65FF00",
"X c #86C06C",
"o c #E0F8CF",
/* pixels */
"............................................................",
"............................................................",
"............................................................",
"............................................................",
"...................                      ...................",
"...................                      ...................",
"...................                      ...................",
"           ....    XXXXXXXXXXXXXXXXXXoooo    ....           ",
"           ....    XXXXXXXXXXXXXXXXXXoooo    ....           ",
"           ....    XXXXXXXXXXXXXXXXXXoooo    ....           ",
"           ....    XXXXXXXXXXXXXXXXXXoooo    ....           ",
"    XXXXXXX    XXXXXXXXXXXooooXXXXXXXXXXXXXXX    XXXXXXX    ",
"    XXXXXXX    XXXXXXXXXXXooooXXXXXXXXXXXXXXX    XXXXXXX    ",
"    XXXXXXX    XXXXXXXXXXXooooXXXXXXXXXXXXXXX    XXXXXXX    ",
"    XXXXXXX    XXXXXXXXXXXooooXXXXXXXXXXXXXXX    XXXXXXX    ",
"....   XXXXXXXXXXXXXXXXXXXXXXXXXXXoooXXXXXXXXXXXXXXX    ....",
"....   XXXXXXXXXXXXXXXXXXXXXXXXXXXoooXXXXXXXXXXXXXXX    ....",
"....   XXXXXXXXXXXXXXXXXXXXXXXXXXXoooXXXXXXXXXXXXXXX    ....",
"....   XXXXXXXXXXXXXXXXXXXXXXXXXXXoooXXXXXXXXXXXXXXX    ....",
"....   XXXXXXXXXXXXXXXXXXXXXXXXXXXXXXXXXXXXXXXXXXXXX    ....",
"....   XXXXXXXXXXXXXXXXXXXXXXXXXXXXXXXXXXXXXXXXXXXXX    ....",
"....   XXXXXXXXXXXXXXXXXXXXXXXXXXXXXXXXXXXXXXXXXXXXX    ....",
"....   XXXXXXXXoooooooXXXXXXXXXXXXXXXooooooooXXXXXXX    ....",
"....   XXXXXXXXoooooooXXXXXXXXXXXXXXXooooooooXXXXXXX    ....",
"....   XXXXXXXXoooooooXXXXXXXXXXXXXXXooooooooXXXXXXX    ....",
"....   XXXXXXXXoooooooXXXXXXXXXXXXXXXooooooooXXXXXXX    ....",
".......    XXXX    ooo    XXXXXXXX   oooo    XXXX   ........",
".......    XXXX    ooo    XXXXXXXX   oooo    XXXX   ........",
".......    XXXX    ooo    XXXXXXXX   oooo    XXXX   ........",
".......    XXXX    ooo    XXXXXXXX   oooo    XXXX   ........",
".......    XXXXXXXXXXX    XXXXXXXX   XXXXXXXXXXXX   ........",
".......    XXXXXXXXXXX    XXXXXXXX   XXXXXXXXXXXX   ........",
".......    XXXXXXXXXXX    XXXXXXXX   XXXXXXXXXXXX   ........",
".......    XXXXXXXXXXX    XXXXXXXX   XXXXXXXXXXXX   ........",
"...........    XXXXXXXXXXX        XXXXXXXXXXX    ...........",
"...........    XXXXXXXXXXX        XXXXXXXXXXX    ...........",
"...........    XXXXXXXXXXX        XXXXXXXXXXX    ...........",
".......    oooo    XXXXXXXXXXXXXXXXXXXXXX    oooo   ........",
".......    oooo    XXXXXXXXXXXXXXXXXXXXXX    oooo   ........",
".......    oooo    XXXXXXXXXXXXXXXXXXXXXX    oooo   ........",
".......    oooo    XXXXXXXXXXXXXXXXXXXXXX    oooo   ........",
"....   XXXXXXXXoooo                      ooooXXXXXXX    ....",
"....   XXXXXXXXoooo                      ooooXXXXXXX    ....",
"....   XXXXXXXXoooo                      ooooXXXXXXX    ....",
"....   XXXXXXXXoooo                      ooooXXXXXXX    ....",
"....   XXXX    oooooooooooooooooooooooooooooo    XXX    ....",
"....   XXXX    oooooooooooooooooooooooooooooo    XXX    ....",
"....   XXXX    oooooooooooooooooooooooooooooo    XXX    ....",
"....   XXXX    oooooooooooooooooooooooooooooo    XXX    ....",
"....       ....    oooooooooooooooooooooo    ....       ....",
"....       ....    oooooooooooooooooooooo    ....       ....",
"....       ....    oooooooooooooooooooooo    ....       ....",
"...............    XXX               XXXX    ...............",
"...............    XXX               XXXX    ...............",
"...............    XXX               XXXX    ...............",
"...............    XXX               XXXX    ...............",
"...............           ........           ...............",
"...............           ........           ...............",
"...............           ........           ...............",
"...............           ........           ..............."
};
