/* XPM */
static char *b4938a63104a462db7f57509a8a8c008gZTTY3P3E7BWjAaJ[] = {
/* columns rows colors chars-per-pixel */
"60 60 4 1 ",
"  c #071821",
". c #306850",
"X c #86C06C",
"o c #E0F8CF",
/* pixels */
"oooooXXXXXXXXXXXXXXXXXXXXXXXXXXXXXXXXXXXXXXXXXXXXXXXXXXooooo",
"oooooXXXXXXXXXXXXXXXXXXXXXXXXXXXXXXXXXXXXXXXXXXXXXXXXXXooooo",
"ooXXX                                                  XXooo",
"ooXXX                                                  XXooo",
"ooXXX                                                  XXooo",
"XX   oooooooooooooooooooooooooooooooooooooooooooooooooo  XXX",
"XX   oooooooooooooooooooooooooooooooooooooooooooooooooo  XXX",
"XX   oo                                             ooo  XXX",
"XX   oo                                             ooo  XXX",
"XX   oo                                             ooo  XXX",
"XX   XX   oooooooooooooooooooooooooooooooooooooooo  XXX  XXX",
"XX   XX   oooooooooooooooooooooooooooooooooooooooo  XXX  XXX",
"XX   oo   oooooooooooooooooooooooooooooooooooooooo  ooo  XXX",
"XX   oo   oooooooooooooooooooooooooooooooooooooooo  ooo  XXX",
"XX   oo   oooooooooooooooooooooooooooooooooooooooo  ooo  XXX",
"XX   XX   oooooooooooooooooooooooooooooooooooooooo  XXX  XXX",
"XX   XX   oooooooooooooooooooooooooooooooooooooooo  XXX  XXX",
"XX   XX   oooooooooooooooooooooooooooooooooooooooo  XXX  XXX",
"XX   XX   oooooooooooooooooooooooooooooooooooooooo  XXX  XXX",
"XX   XX   oooooooooooooooooooooooooooooooooooooooo  XXX  XXX",
"XX   XX   oooooooooooooooooooooooooooooooooooooooo  XXX  XXX",
"XX   XX   oooooooooooooooooooooooooooooooooooooooo  XXX  XXX",
"XX   XX   oooooooooooooooooooooooooooooooooooooooo  XXX  XXX",
"XX   XX   oooooooooooooooooooooooooooooooooooooooo  XXX  XXX",
"XX   XX   oooooooooooooooooooooooooooooooooooooooo  XXX  XXX",
"XX   XX   oooooooooooooooooooooooooooooooooooooooo  XXX  XXX",
"XX   XX   oooooooooooooooooooooooooooooooooooooooo  XXX  XXX",
"XX   XX   oooooooooooooooooooooooooooooooooooooooo  XXX  XXX",
"XX   XX   oooooooooooooooooooooooooooooooooooooooo  XXX  XXX",
"XX   XX   oooooooooooooooooooooooooooooooooooooooo  XXX  XXX",
"XX   XX   oooooooooooooooooooooooooooooooooooooooo  XXX  XXX",
"XX   XX   oooooooooooooooooooooooooooooooooooooooo  XXX  XXX",
"XX   XX   oooooooooooooooooooooooooooooooooooooooo  XXX  XXX",
"XX   XX   oooooooooooooooooooooooooooooooooooooooo  XXX  XXX",
"XX   XX   oooooooooooooooooooooooooooooooooooooooo  XXX  XXX",
"XX   XX   oooooooooooooooooooooooooooooooooooooooo  XXX  XXX",
"XX   XX   oooooooooooooooooooooooooooooooooooooooo  XXX  XXX",
"XX   XX   oooooooooooooooooooooooooooooooooooooooo  XXX  XXX",
"XX   XX   oooooooooooooooooooooooooooooooooooooooo  XXX  XXX",
"XX   XX   oooooooooooooooooooooooooooooooooooooooo  XXX  XXX",
"XX   ..   oooooooooooooooooooooooooooooooooooooooo  ...  XXX",
"XX   ..   oooooooooooooooooooooooooooooooooooooooo  ...  XXX",
"XX   XX   oooooooooooooooooooooooooooooooooooooooo  XXX  XXX",
"XX   XX   oooooooooooooooooooooooooooooooooooooooo  XXX  XXX",
"XX   XX   oooooooooooooooooooooooooooooooooooooooo  XXX  XXX",
"XX   ..   oooooooooooooooooooooooooooooooooooooooo  ...  XXX",
"XX   ..   oooooooooooooooooooooooooooooooooooooooo  ...  XXX",
"XX   XX   oooooooooooooooooooooooooooooooooooooooo  XXX  XXX",
"XX   XX   oooooooooooooooooooooooooooooooooooooooo  XXX  XXX",
"XX   XX   oooooooooooooooooooooooooooooooooooooooo  XXX  XXX",
"XX   ..                                             ...  XXX",
"XX   ..                                             ...  XXX",
"XX   ..................................................  XXX",
"XX   ..................................................  XXX",
"XX   ..................................................  XXX",
"ooXXX                                                  XXooo",
"ooXXX                                                  XXooo",
"oooooXXXXXXXXXXXXXXXXXXXXXXXXXXXXXXXXXXXXXXXXXXXXXXXXXXooooo",
"oooooXXXXXXXXXXXXXXXXXXXXXXXXXXXXXXXXXXXXXXXXXXXXXXXXXXooooo",
"oooooXXXXXXXXXXXXXXXXXXXXXXXXXXXXXXXXXXXXXXXXXXXXXXXXXXooooo"
};
